<?xml version="1.0" standalone="no"?>
<!DOCTYPE svg PUBLIC "-//W3C//DTD SVG 20010904//EN"
 "http://www.w3.org/TR/2001/REC-SVG-20010904/DTD/svg10.dtd">
<svg version="1.0" xmlns="http://www.w3.org/2000/svg"
 width="500.000000pt" height="500.000000pt" viewBox="0 0 500.000000 500.000000"
 preserveAspectRatio="xMidYMid meet">

<g transform="translate(0.000000,500.000000) scale(0.100000,-0.100000)"
fill="#000000" stroke="none">
<path d="M2915 3264 c-33 -2 -188 -11 -345 -19 -946 -51 -1428 -120 -1884
-270 -471 -156 -669 -309 -669 -520 0 -124 65 -233 190 -319 197 -134 704
-266 1238 -322 175 -19 772 -25 1090 -12 94 4 166 5 160 3 -29 -12 -413 -37
-640 -42 -143 -3 -265 -10 -272 -15 -6 -5 -9 -16 -6 -24 4 -11 36 -14 167 -14
785 1 1735 175 2401 440 306 122 533 288 607 446 29 60 33 79 33 149 0 70 -4
87 -30 133 -87 159 -311 257 -757 331 -274 46 -377 53 -808 56 -228 1 -442 1
-475 -1z m1000 -63 c167 -19 402 -61 547 -97 272 -69 395 -140 459 -266 17
-33 20 -55 17 -107 -5 -87 -35 -146 -117 -233 -189 -201 -593 -375 -1232 -532
-168 -41 -210 -47 -479 -70 -548 -47 -619 -50 -1065 -51 -357 0 -472 3 -610
18 -513 55 -1012 186 -1203 316 -109 74 -165 165 -166 271 -2 184 151 306 569
455 478 170 986 243 2135 304 219 12 1019 6 1145 -8z"/>
</g>
</svg>
