<?xml version="1.0" standalone="no"?>
<!DOCTYPE svg PUBLIC "-//W3C//DTD SVG 20010904//EN"
 "http://www.w3.org/TR/2001/REC-SVG-20010904/DTD/svg10.dtd">
<svg version="1.0" xmlns="http://www.w3.org/2000/svg"
 width="500.000000pt" height="500.000000pt" viewBox="0 0 500.000000 500.000000"
 preserveAspectRatio="xMidYMid meet">

<g transform="translate(0.000000,500.000000) scale(0.100000,-0.100000)"
fill="#000000" stroke="none">
<path d="M1861 4865 c-135 -38 -244 -115 -325 -228 -55 -79 -78 -124 -121
-242 -80 -223 -138 -325 -430 -765 -232 -350 -279 -429 -388 -646 -216 -431
-323 -810 -334 -1184 -12 -399 73 -733 260 -1018 287 -438 739 -653 1499 -713
194 -15 624 -7 783 15 265 37 504 106 710 205 580 279 895 704 1020 1376 35
193 49 365 42 544 -12 305 -83 489 -263 680 -90 96 -206 181 -466 344 -430
269 -498 337 -833 842 -106 160 -229 333 -274 387 -171 204 -342 327 -536 388
-93 29 -267 36 -344 15z m288 -21 c103 -25 274 -113 371 -192 154 -124 247
-242 513 -642 304 -458 397 -550 829 -812 430 -261 583 -429 665 -733 25 -94
27 -114 27 -320 1 -301 -34 -532 -119 -790 -156 -476 -443 -806 -889 -1025
-386 -188 -754 -259 -1295 -247 -784 16 -1300 201 -1612 577 -361 435 -454
1057 -259 1724 70 240 204 546 358 821 31 55 145 233 253 395 285 429 362 564
433 762 100 277 221 413 426 479 70 23 211 24 299 3z"/>
</g>
</svg>
