<?xml version="1.0" standalone="no"?>
<!DOCTYPE svg PUBLIC "-//W3C//DTD SVG 20010904//EN"
 "http://www.w3.org/TR/2001/REC-SVG-20010904/DTD/svg10.dtd">
<svg version="1.0" xmlns="http://www.w3.org/2000/svg"
 width="500.000000pt" height="500.000000pt" viewBox="0 0 500.000000 500.000000"
 preserveAspectRatio="xMidYMid meet">

<g transform="translate(0.000000,500.000000) scale(0.100000,-0.100000)"
fill="#000000" stroke="none">
<path d="M1463 3770 c-227 -29 -361 -91 -629 -290 -228 -170 -379 -319 -461
-458 l-25 -42 36 -77 c95 -200 226 -334 646 -662 374 -292 593 -424 940 -569
369 -153 730 -231 1116 -240 319 -7 572 28 839 115 254 82 466 240 599 445 71
110 120 219 113 250 -12 45 -100 164 -190 256 -166 169 -310 268 -827 567
-614 356 -1001 529 -1419 635 -241 61 -565 92 -738 70z"/>
<path d="M297 2868 c-65 -171 -62 -368 7 -552 91 -240 276 -430 791 -811 511
-378 1015 -591 1620 -687 193 -30 641 -33 810 -5 139 23 316 68 431 108 337
117 612 413 704 754 32 120 41 455 12 455 -4 0 -18 -23 -32 -51 -33 -71 -108
-176 -181 -254 -162 -173 -347 -275 -635 -349 -186 -47 -331 -66 -561 -73
-639 -18 -1333 179 -1912 544 -75 47 -219 149 -321 226 -420 319 -561 457
-670 660 -23 42 -43 77 -45 77 -1 0 -10 -19 -18 -42z"/>
</g>
</svg>
