<svg xmlns="http://www.w3.org/2000/svg" xmlns:xlink="http://www.w3.org/1999/xlink" width="200" zoomAndPan="magnify" viewBox="0 0 150 149.999998" height="200" preserveAspectRatio="xMidYMid meet" version="1.0"><defs><clipPath id="id1"><path d="M 46 25.574219 L 101 25.574219 L 101 114 L 46 114 Z M 46 25.574219 " clip-rule="nonzero"/></clipPath><clipPath id="id2"><path d="M 67 90 L 71 90 L 71 114.824219 L 67 114.824219 Z M 67 90 " clip-rule="nonzero"/></clipPath><clipPath id="id3"><path d="M 76 40 L 117.507812 40 L 117.507812 66 L 76 66 Z M 76 40 " clip-rule="nonzero"/></clipPath><clipPath id="id4"><path d="M 40.257812 32 L 80 32 L 80 62 L 40.257812 62 Z M 40.257812 32 " clip-rule="nonzero"/></clipPath></defs><g clip-path="url(#id1)"><path fill="#000000" d="M 46.847656 113.078125 C 46.691406 113.078125 46.5625 112.953125 46.554688 112.796875 C 45.339844 82.941406 52.203125 65.222656 56.300781 54.632812 C 56.621094 53.804688 56.925781 53.019531 57.210938 52.265625 C 58.636719 48.507812 60.300781 46.507812 63.320312 42.878906 C 64.679688 41.246094 66.371094 39.214844 68.449219 36.527344 C 74.511719 28.6875 75.289062 28.570312 82.738281 27.484375 C 83.175781 27.421875 83.636719 27.355469 84.121094 27.28125 C 94.253906 25.773438 99.960938 25.601562 100.015625 25.601562 C 100.113281 25.59375 100.195312 25.636719 100.25 25.707031 C 100.308594 25.777344 100.332031 25.867188 100.308594 25.957031 C 100.285156 26.0625 99.679688 28.605469 96.039062 30.257812 C 93.492188 31.417969 88.640625 33.082031 85.097656 34.296875 C 82.984375 35.019531 81.160156 35.644531 80.75 35.847656 C 80 36.222656 76.890625 42.070312 75.105469 45.679688 C 75.042969 45.84375 74.8125 46.238281 74.292969 47.132812 C 73.191406 49.027344 71.140625 52.550781 69.753906 55.71875 C 69.691406 55.867188 69.519531 55.933594 69.371094 55.871094 C 69.222656 55.804688 69.15625 55.632812 69.21875 55.484375 C 70.621094 52.289062 72.679688 48.742188 73.789062 46.839844 C 74.179688 46.164062 74.519531 45.582031 74.558594 45.472656 C 74.5625 45.460938 74.570312 45.445312 74.574219 45.433594 C 75.359375 43.847656 79.339844 35.902344 80.492188 35.328125 C 80.9375 35.105469 82.601562 34.535156 84.90625 33.742188 C 88.441406 32.53125 93.277344 30.875 95.800781 29.730469 C 98.355469 28.570312 99.300781 26.929688 99.609375 26.199219 C 98.117188 26.269531 92.742188 26.589844 84.207031 27.859375 C 83.722656 27.929688 83.261719 28 82.824219 28.0625 C 75.433594 29.140625 74.828125 29.230469 68.910156 36.886719 C 66.828125 39.578125 65.132812 41.617188 63.769531 43.253906 C 60.789062 46.832031 59.148438 48.804688 57.757812 52.472656 C 57.46875 53.226562 57.164062 54.015625 56.84375 54.84375 C 52.761719 65.390625 45.929688 83.039062 47.140625 112.773438 C 47.144531 112.9375 47.019531 113.070312 46.859375 113.078125 C 46.855469 113.078125 46.851562 113.078125 46.847656 113.078125 " fill-opacity="1" fill-rule="nonzero"/></g><path fill="#000000" d="M 77.074219 57.136719 C 76.976562 57.136719 76.878906 57.085938 76.824219 56.996094 C 76.742188 56.859375 76.785156 56.679688 76.925781 56.59375 C 79.105469 55.289062 81.105469 53.589844 83.042969 51.945312 L 83.503906 51.554688 C 83.65625 51.425781 83.867188 51.246094 84.121094 51.035156 C 85.289062 50.054688 87.464844 48.222656 88.125 47.566406 C 88.242188 47.449219 88.425781 47.449219 88.539062 47.566406 C 88.652344 47.679688 88.652344 47.863281 88.539062 47.976562 C 87.859375 48.65625 85.753906 50.425781 84.496094 51.480469 C 84.246094 51.695312 84.03125 51.871094 83.882812 52 L 83.421875 52.390625 C 81.464844 54.050781 79.445312 55.765625 77.226562 57.09375 C 77.179688 57.125 77.125 57.136719 77.074219 57.136719 " fill-opacity="1" fill-rule="nonzero"/><path fill="#000000" d="M 96.714844 51.773438 C 96.710938 51.773438 96.703125 51.773438 96.699219 51.773438 C 93.683594 51.628906 90.632812 50.109375 87.375 47.132812 C 87.253906 47.023438 87.246094 46.839844 87.355469 46.71875 C 87.464844 46.601562 87.648438 46.59375 87.769531 46.699219 C 90.921875 49.585938 93.855469 51.054688 96.726562 51.191406 C 96.890625 51.199219 97.011719 51.335938 97.003906 51.496094 C 96.996094 51.652344 96.867188 51.773438 96.714844 51.773438 " fill-opacity="1" fill-rule="nonzero"/><path fill="#000000" d="M 102.976562 54.78125 C 102.273438 54.78125 101.433594 54.6875 100.457031 54.457031 C 98.769531 54.054688 96.601562 52.855469 95.296875 51.601562 C 95.183594 51.488281 95.179688 51.304688 95.289062 51.1875 C 95.402344 51.074219 95.585938 51.070312 95.703125 51.179688 C 96.9375 52.371094 98.992188 53.507812 100.589844 53.890625 C 103.660156 54.617188 104.929688 53.894531 105.1875 53.621094 L 105.144531 53.585938 C 98.929688 48.394531 91.882812 42.507812 89.242188 41.710938 C 86.46875 40.871094 82.640625 42.183594 74.605469 46.71875 C 74.46875 46.796875 74.289062 46.75 74.210938 46.609375 C 74.128906 46.46875 74.179688 46.292969 74.320312 46.210938 C 82.511719 41.585938 86.460938 40.261719 89.414062 41.152344 C 92.164062 41.984375 99.261719 47.910156 105.519531 53.140625 L 105.671875 53.265625 C 105.828125 53.394531 105.859375 53.613281 105.757812 53.820312 C 105.527344 54.277344 104.613281 54.78125 102.976562 54.78125 " fill-opacity="1" fill-rule="nonzero"/><path fill="#000000" d="M 61.027344 95.921875 C 60.90625 95.921875 60.792969 95.847656 60.753906 95.726562 C 60.699219 95.574219 60.78125 95.40625 60.933594 95.355469 C 71.730469 91.691406 76.078125 85.324219 78.957031 81.113281 C 79.558594 80.230469 80.078125 79.46875 80.582031 78.851562 C 84.347656 74.300781 95.867188 67.421875 102.058594 63.726562 C 103.285156 62.996094 104.25 62.417969 104.910156 62.003906 C 105.421875 61.683594 106.785156 60.835938 106.734375 60.285156 C 106.714844 60.082031 106.476562 59.753906 105.453125 59.355469 C 103.054688 58.414062 97.375 59.09375 93.648438 61.382812 C 93.617188 61.402344 93.582031 61.414062 93.542969 61.421875 C 93.429688 61.441406 81.859375 63.460938 75.773438 68.75 C 75.652344 68.855469 75.46875 68.84375 75.363281 68.722656 C 75.257812 68.601562 75.269531 68.417969 75.390625 68.3125 C 81.378906 63.105469 92.496094 61.015625 93.390625 60.855469 C 97.316406 58.46875 103.101562 57.804688 105.667969 58.8125 C 106.742188 59.230469 107.265625 59.683594 107.3125 60.230469 C 107.382812 60.984375 106.527344 61.683594 105.21875 62.5 C 104.554688 62.914062 103.585938 63.492188 102.355469 64.226562 C 96.195312 67.90625 84.734375 74.75 81.03125 79.222656 C 80.546875 79.816406 80.035156 80.570312 79.4375 81.441406 C 76.695312 85.457031 72.101562 92.179688 61.121094 95.90625 C 61.089844 95.917969 61.058594 95.921875 61.027344 95.921875 " fill-opacity="1" fill-rule="nonzero"/><path fill="#000000" d="M 77.386719 67.269531 C 77.386719 67.269531 77.382812 67.269531 77.382812 67.269531 C 77.222656 67.265625 77.09375 67.132812 77.09375 66.972656 C 77.152344 61.992188 77.238281 54.460938 73.644531 47.375 C 73.570312 47.230469 73.628906 47.054688 73.769531 46.980469 C 73.914062 46.910156 74.089844 46.96875 74.164062 47.109375 C 77.820312 54.328125 77.734375 61.941406 77.679688 66.980469 C 77.675781 67.140625 77.546875 67.269531 77.386719 67.269531 " fill-opacity="1" fill-rule="nonzero"/><path fill="#000000" d="M 90.820312 61.859375 C 90.78125 61.859375 90.738281 61.851562 90.699219 61.835938 C 90.6875 61.828125 89.148438 61.140625 86.300781 60.039062 C 84.191406 59.222656 82.140625 59.304688 79.765625 59.402344 C 78.964844 59.433594 78.136719 59.46875 77.261719 59.46875 C 77.101562 59.46875 76.96875 59.335938 76.96875 59.175781 C 76.96875 59.015625 77.101562 58.882812 77.261719 58.882812 C 78.125 58.882812 78.945312 58.851562 79.742188 58.820312 C 82.183594 58.722656 84.289062 58.636719 86.511719 59.496094 C 89.375 60.605469 90.925781 61.296875 90.941406 61.304688 C 91.085938 61.371094 91.152344 61.542969 91.085938 61.6875 C 91.039062 61.796875 90.933594 61.859375 90.820312 61.859375 " fill-opacity="1" fill-rule="nonzero"/><path fill="#000000" d="M 100.351562 59.09375 C 100.289062 59.09375 100.226562 59.074219 100.171875 59.035156 C 99.636719 58.617188 91.292969 52.554688 88.542969 51.523438 C 87.59375 51.167969 86.886719 51.363281 85.605469 51.71875 C 85.023438 51.878906 84.363281 52.0625 83.527344 52.238281 C 83.367188 52.269531 83.214844 52.167969 83.179688 52.011719 C 83.148438 51.851562 83.25 51.699219 83.40625 51.664062 C 84.226562 51.496094 84.875 51.316406 85.449219 51.15625 C 86.757812 50.796875 87.621094 50.558594 88.746094 50.976562 C 91.734375 52.097656 100.453125 58.511719 100.53125 58.574219 C 100.660156 58.671875 100.679688 58.855469 100.582031 58.984375 C 100.523438 59.054688 100.4375 59.09375 100.351562 59.09375 " fill-opacity="1" fill-rule="nonzero"/><path fill="#000000" d="M 94.117188 60.929688 C 94.082031 60.929688 94.046875 60.921875 94.015625 60.910156 C 93.121094 60.570312 92.324219 60.199219 91.550781 59.839844 C 90.277344 59.246094 89.078125 58.6875 87.449219 58.246094 C 86.6875 58.039062 84.484375 58.613281 82.097656 59.269531 C 81.941406 59.3125 81.78125 59.222656 81.738281 59.066406 C 81.695312 58.914062 81.785156 58.75 81.941406 58.707031 C 85.046875 57.851562 86.773438 57.460938 87.601562 57.683594 C 89.277344 58.136719 90.558594 58.734375 91.796875 59.3125 C 92.558594 59.667969 93.347656 60.035156 94.21875 60.363281 C 94.371094 60.421875 94.445312 60.589844 94.390625 60.742188 C 94.347656 60.855469 94.234375 60.929688 94.117188 60.929688 " fill-opacity="1" fill-rule="nonzero"/><path fill="#000000" d="M 102.046875 64.882812 C 101.828125 64.882812 101.597656 64.867188 101.363281 64.84375 C 101.203125 64.824219 101.085938 64.679688 101.105469 64.519531 C 101.121094 64.359375 101.269531 64.246094 101.425781 64.261719 C 103.113281 64.449219 104.160156 63.867188 104.335938 63.410156 C 104.359375 63.351562 104.429688 63.164062 104.144531 62.953125 C 104.015625 62.859375 103.988281 62.679688 104.082031 62.546875 C 104.175781 62.417969 104.359375 62.390625 104.488281 62.484375 C 104.894531 62.777344 105.042969 63.203125 104.878906 63.621094 C 104.625 64.277344 103.574219 64.882812 102.046875 64.882812 " fill-opacity="1" fill-rule="nonzero"/><path fill="#000000" d="M 75.984375 72.710938 C 75.832031 72.710938 75.703125 72.59375 75.691406 72.441406 C 75.203125 65.703125 71.453125 59.621094 68.148438 54.253906 C 68.0625 54.117188 68.105469 53.9375 68.242188 53.855469 C 68.378906 53.769531 68.558594 53.8125 68.644531 53.949219 C 71.988281 59.371094 75.777344 65.519531 76.273438 72.398438 C 76.285156 72.558594 76.164062 72.699219 76.003906 72.710938 C 75.996094 72.710938 75.988281 72.710938 75.984375 72.710938 " fill-opacity="1" fill-rule="nonzero"/><path fill="#000000" d="M 99.128906 68.199219 Z M 96.347656 69.785156 C 96.105469 69.785156 95.851562 69.773438 95.582031 69.746094 C 93.621094 69.542969 93.574219 69.378906 93.519531 69.1875 C 93.488281 69.074219 93.535156 68.929688 93.628906 68.859375 C 93.757812 68.761719 93.941406 68.785156 94.039062 68.914062 C 94.039062 68.914062 94.039062 68.917969 94.042969 68.917969 C 94.164062 68.960938 94.546875 69.054688 95.640625 69.164062 C 98.027344 69.40625 98.984375 68.417969 99.113281 68.171875 C 99.003906 68.003906 98.441406 67.652344 98.097656 67.4375 C 97.917969 67.324219 97.734375 67.207031 97.5625 67.09375 C 97.429688 67.007812 97.390625 66.824219 97.480469 66.691406 C 97.570312 66.558594 97.753906 66.519531 97.886719 66.609375 C 98.050781 66.71875 98.230469 66.832031 98.40625 66.941406 C 99.203125 67.441406 99.777344 67.800781 99.699219 68.25 C 99.613281 68.746094 98.535156 69.785156 96.347656 69.785156 " fill-opacity="1" fill-rule="nonzero"/><g clip-path="url(#id2)"><path fill="#000000" d="M 68.574219 114.800781 C 68.429688 114.800781 68.300781 114.691406 68.285156 114.539062 C 68.21875 113.859375 66.632812 97.789062 69.613281 90.714844 C 69.675781 90.566406 69.847656 90.496094 69.996094 90.5625 C 70.144531 90.625 70.214844 90.792969 70.152344 90.941406 C 67.226562 97.878906 68.851562 114.316406 68.867188 114.480469 C 68.882812 114.640625 68.765625 114.785156 68.605469 114.800781 C 68.597656 114.800781 68.585938 114.800781 68.574219 114.800781 " fill-opacity="1" fill-rule="nonzero"/></g><g clip-path="url(#id3)"><path fill="#000000" d="M 78.226562 42.417969 L 77.886719 42.214844 C 77.238281 41.828125 76.773438 41.421875 76.84375 41.304688 C 76.910156 41.191406 77.488281 41.410156 78.136719 41.796875 L 78.476562 42.003906 C 79.121094 42.386719 79.589844 42.796875 79.519531 42.910156 C 79.449219 43.023438 78.871094 42.804688 78.226562 42.417969 Z M 100.027344 54.792969 C 91.855469 49.734375 80.347656 42.714844 80.148438 42.59375 C 80.117188 42.578125 79.535156 42.230469 79.507812 42.210938 C 78.9375 41.871094 78.371094 41.515625 77.792969 41.183594 C 77.460938 40.996094 76.566406 40.484375 76.273438 40.96875 C 76.023438 41.386719 76.78125 41.929688 77.089844 42.121094 C 77.558594 42.417969 78.027344 42.714844 78.5 43.007812 C 78.679688 43.121094 79.34375 43.5 79.527344 43.609375 C 79.734375 43.730469 91.453125 50.511719 99.761719 55.34375 C 105.226562 58.523438 117.507812 65.511719 117.507812 65.511719 C 117.507812 65.511719 104.839844 57.773438 100.027344 54.792969 " fill-opacity="1" fill-rule="nonzero"/></g><g clip-path="url(#id4)"><path fill="#000000" d="M 55.386719 51.929688 C 54.351562 53.445312 53.8125 55.28125 54.140625 57.246094 C 54.558594 59.761719 56.304688 60.527344 57.308594 60.761719 C 59.230469 61.210938 61.4375 60.488281 62.449219 59.085938 C 62.980469 58.347656 63.394531 57.113281 62.355469 55.425781 C 61.097656 53.386719 58.457031 52.347656 56.40625 52.054688 C 56.0625 52.007812 55.722656 51.964844 55.386719 51.929688 Z M 77.261719 42.226562 C 74.714844 45.363281 70.3125 46.550781 66.949219 47.175781 C 66.101562 47.332031 65.238281 47.445312 64.398438 47.550781 C 63.175781 47.703125 61.914062 47.863281 60.710938 48.175781 C 58.847656 48.65625 57.027344 49.828125 55.757812 51.425781 C 55.996094 51.453125 56.238281 51.484375 56.484375 51.519531 C 58.65625 51.828125 61.460938 52.945312 62.816406 55.140625 C 63.75 56.65625 63.777344 58.171875 62.886719 59.402344 C 61.980469 60.664062 60.222656 61.433594 58.46875 61.433594 C 58.035156 61.433594 57.605469 61.386719 57.1875 61.289062 C 55.253906 60.839844 53.949219 59.398438 53.605469 57.332031 C 53.269531 55.328125 53.777344 53.449219 54.777344 51.875 C 51.59375 51.636719 48.800781 52.09375 46.460938 53.238281 C 43.234375 54.820312 41.015625 57.859375 40.8125 60.988281 C 40.800781 61.136719 40.675781 61.25 40.523438 61.238281 C 40.375 61.230469 40.261719 61.101562 40.269531 60.953125 C 40.488281 57.632812 42.824219 54.417969 46.222656 52.753906 C 48.726562 51.523438 51.71875 51.058594 55.132812 51.363281 C 56.480469 49.53125 58.503906 48.183594 60.574219 47.652344 C 61.8125 47.332031 63.09375 47.171875 64.332031 47.011719 C 65.160156 46.90625 66.019531 46.796875 66.847656 46.644531 C 70.101562 46.039062 74.351562 44.894531 76.800781 41.925781 Z M 77.039062 41.605469 C 77.558594 40.90625 77.984375 40.113281 78.285156 39.210938 C 78.882812 37.417969 78.496094 35.410156 77.332031 34.207031 C 76.074219 32.914062 73.855469 32.710938 72.578125 33.773438 C 72.460938 33.871094 72.292969 33.855469 72.195312 33.742188 C 72.101562 33.625 72.117188 33.453125 72.230469 33.359375 C 73.738281 32.101562 76.253906 32.316406 77.71875 33.828125 C 79.023438 35.171875 79.457031 37.402344 78.796875 39.382812 C 78.476562 40.351562 78.019531 41.199219 77.464844 41.941406 C 77.464844 41.941406 77.367188 41.882812 77.230469 41.769531 C 77.09375 41.65625 77.039062 41.605469 77.039062 41.605469 " fill-opacity="1" fill-rule="nonzero"/></g></svg>