<svg xmlns="http://www.w3.org/2000/svg" xmlns:xlink="http://www.w3.org/1999/xlink" width="200" zoomAndPan="magnify" viewBox="0 0 150 149.999998" height="200" preserveAspectRatio="xMidYMid meet" version="1.0"><defs><clipPath id="id1"><path d="M 19.769531 33.085938 L 131.269531 33.085938 L 131.269531 116.335938 L 19.769531 116.335938 Z M 19.769531 33.085938 " clip-rule="nonzero"/></clipPath></defs><g clip-path="url(#id1)"><path fill="#000000" d="M 112.695312 59.613281 C 111.84375 59.054688 111.140625 58.535156 110.222656 58.414062 C 110.109375 60.296875 110.335938 63.824219 110.660156 64.933594 C 111.308594 64.660156 111.941406 64.390625 112.589844 64.113281 C 112.625 62.578125 112.660156 61.152344 112.695312 59.613281 Z M 122.734375 67.203125 C 122.695312 65.652344 122.691406 64.269531 122.621094 62.890625 C 122.5625 61.726562 122.730469 60.542969 122.515625 59.339844 C 122.449219 58.972656 122.160156 58.6875 121.792969 58.636719 C 120.613281 58.476562 119.46875 58.449219 118.347656 58.78125 C 118.230469 59.660156 118.246094 59.660156 118.535156 60.398438 C 119.261719 60.640625 120.089844 60.214844 120.878906 60.71875 C 121.382812 63.027344 120.792969 65.488281 121.585938 67.949219 C 122.101562 67.613281 122.480469 67.367188 122.734375 67.203125 Z M 30.019531 79.875 C 30.675781 81.90625 31.28125 83.582031 32.035156 85.207031 C 32.65625 86.539062 33.695312 87.191406 35.125 87.328125 C 36.570312 87.464844 37.703125 87.027344 38.460938 85.730469 C 39.109375 84.625 39.449219 83.410156 39.761719 82.1875 C 39.839844 81.863281 39.832031 81.519531 39.871094 81.078125 C 36.589844 80.960938 33.421875 80.921875 30.019531 79.875 Z M 22.660156 101.308594 C 20.714844 103.824219 20.082031 106.640625 20.421875 109.699219 C 20.582031 111.152344 21.042969 112.53125 21.910156 113.734375 C 22.84375 115.03125 24.023438 115.761719 25.710938 115.722656 C 28.890625 115.648438 32.070312 115.703125 35.253906 115.695312 C 46.175781 115.671875 57.097656 115.644531 68.023438 115.617188 C 73.605469 115.601562 79.1875 115.597656 84.765625 115.570312 C 88.910156 115.554688 93.050781 115.496094 97.191406 115.488281 C 104.515625 115.480469 111.835938 115.472656 119.15625 115.519531 C 120.628906 115.527344 121.75 114.984375 122.539062 113.828125 C 124.710938 110.648438 125.082031 107.230469 123.566406 103.683594 C 122.898438 102.113281 121.664062 101.320312 119.867188 101.339844 C 114.585938 101.386719 109.304688 101.367188 104.023438 101.351562 C 96.941406 101.332031 89.859375 101.28125 82.777344 101.269531 C 76.234375 101.257812 69.691406 101.289062 63.148438 101.277344 C 55.289062 101.265625 47.425781 101.230469 39.5625 101.207031 C 35.660156 101.195312 31.757812 101.175781 27.859375 101.183594 C 26.183594 101.1875 24.503906 101.261719 22.660156 101.308594 Z M 111.136719 100.566406 C 110.90625 99.683594 110.65625 98.828125 110.464844 97.960938 C 109.40625 93.160156 109.125 88.269531 108.816406 83.386719 C 108.492188 78.238281 109.019531 73.121094 109.550781 68.011719 C 109.851562 65.109375 109.777344 62.21875 109.519531 59.324219 C 109.351562 57.402344 108.640625 55.6875 107.371094 54.238281 C 106.371094 53.097656 105.230469 52.101562 103.871094 51.425781 C 100.640625 49.824219 97.226562 48.972656 93.613281 49.148438 C 91.574219 49.25 89.558594 49.574219 87.566406 50.070312 C 83.550781 51.066406 79.523438 52.042969 75.414062 52.585938 C 71.832031 53.0625 68.222656 53.195312 64.628906 52.863281 C 58.761719 52.324219 53.253906 50.546875 48.058594 47.722656 C 46.003906 46.601562 43.871094 45.617188 41.710938 44.722656 C 40.277344 44.128906 38.761719 43.675781 37.238281 43.382812 C 35.347656 43.019531 33.429688 43.0625 31.535156 43.582031 C 29.820312 44.054688 28.699219 45.128906 28.171875 46.804688 C 27.863281 47.777344 27.558594 48.78125 27.457031 49.792969 C 27.128906 53.097656 26.777344 56.40625 26.648438 59.726562 C 26.4375 65.066406 27.125 70.339844 28.152344 75.574219 C 28.234375 75.988281 28.324219 76.40625 28.464844 76.800781 C 29.003906 78.324219 29.960938 79.339844 31.613281 79.710938 C 34.269531 80.304688 36.957031 80.433594 39.660156 80.460938 C 39.898438 80.464844 40.140625 80.425781 40.378906 80.394531 C 42.386719 80.144531 43.847656 79.136719 44.6875 77.242188 C 45.140625 76.21875 45.617188 75.207031 46.140625 74.214844 C 46.855469 72.863281 47.570312 71.507812 48.386719 70.21875 C 49.949219 67.757812 52.195312 66.398438 55.121094 66.332031 C 57.519531 66.277344 59.925781 66.242188 62.324219 66.300781 C 65.140625 66.371094 67.960938 66.554688 70.777344 66.695312 C 71.734375 66.742188 72.695312 66.789062 73.652344 66.851562 C 75.75 66.988281 77.84375 67.125 79.9375 67.277344 C 81.019531 67.359375 82.054688 67.613281 83.046875 68.105469 C 85.941406 69.542969 87.488281 71.9375 87.828125 75.089844 C 88.128906 77.914062 88.253906 80.757812 87.816406 83.589844 C 87.546875 85.320312 87.320312 87.058594 87.046875 88.789062 C 86.59375 91.675781 85.75 94.429688 84.316406 96.996094 C 83.875 97.777344 83.542969 98.628906 83.214844 99.472656 C 83.097656 99.78125 83.136719 100.148438 83.101562 100.492188 C 83.367188 100.589844 83.53125 100.703125 83.695312 100.703125 C 92.640625 100.730469 101.585938 100.746094 110.53125 100.757812 C 110.695312 100.757812 110.859375 100.65625 111.136719 100.566406 Z M 82.027344 100.65625 C 82.898438 98.769531 83.648438 97.0625 84.464844 95.390625 C 85.1875 93.914062 85.753906 92.382812 86.0625 90.78125 C 86.722656 87.339844 87.441406 83.898438 87.476562 80.378906 C 87.492188 78.449219 87.449219 76.496094 87.15625 74.59375 C 86.644531 71.226562 84.59375 69.097656 81.378906 68.09375 C 81.097656 68.003906 80.785156 67.867188 80.507812 67.902344 C 78.75 68.132812 77.054688 67.582031 75.316406 67.539062 C 72.375 67.464844 69.441406 67.257812 66.5 67.125 C 63.921875 67.011719 61.34375 66.875 58.765625 66.835938 C 57.265625 66.808594 55.765625 66.914062 54.269531 67.027344 C 52.441406 67.160156 50.941406 68.011719 49.765625 69.40625 C 49.191406 70.09375 48.636719 70.824219 48.210938 71.617188 C 47.152344 73.578125 46.164062 75.582031 45.167969 77.578125 C 44.585938 78.742188 43.851562 79.753906 42.660156 80.332031 C 42.125 80.589844 41.539062 80.75 40.875 80.992188 C 40.746094 81.304688 40.558594 81.675781 40.429688 82.066406 C 40.191406 82.8125 40.011719 83.582031 39.753906 84.324219 C 39.332031 85.535156 38.75 86.652344 37.679688 87.433594 C 37.542969 87.535156 37.433594 87.683594 37.324219 87.824219 C 37.296875 87.863281 37.316406 87.941406 37.308594 88.074219 C 38.363281 88.042969 39.410156 87.742188 40.449219 87.804688 C 40.785156 87.824219 41.082031 88.035156 41.207031 88.351562 C 41.304688 88.605469 41.332031 88.769531 41.308594 89.066406 C 41.277344 89.449219 41 89.777344 40.625 89.855469 C 39.734375 90.035156 38.808594 89.859375 37.902344 89.914062 C 36.839844 89.980469 35.765625 89.882812 34.625 90.046875 C 34.335938 92.433594 34.804688 94.757812 34.558594 97.035156 C 34.539062 97.203125 34.351562 97.3125 34.203125 97.226562 C 34.0625 97.144531 34.078125 96.957031 34.074219 96.820312 C 34.011719 95.070312 33.972656 93.316406 33.917969 91.566406 C 33.894531 90.847656 33.832031 90.199219 33.378906 89.53125 C 33.007812 88.992188 33.066406 88.15625 32.921875 87.363281 C 31.875 86.355469 31.21875 85.019531 30.71875 83.578125 C 30.304688 82.378906 29.824219 81.203125 29.378906 80.019531 C 29.3125 79.851562 29.300781 79.644531 29.195312 79.511719 C 27.722656 77.605469 27.492188 75.277344 27.097656 73.03125 C 26.53125 69.753906 26.179688 66.445312 26.046875 63.117188 C 25.898438 59.363281 26.300781 55.632812 26.640625 51.902344 C 26.785156 50.339844 26.976562 48.785156 27.398438 47.257812 C 28.03125 44.957031 29.355469 43.433594 31.730469 42.921875 C 32.066406 42.847656 32.378906 42.667969 32.804688 42.496094 C 32.839844 40.476562 32.90625 38.492188 32.882812 36.503906 C 32.875 35.921875 32.605469 35.34375 32.453125 34.761719 C 32.371094 34.453125 32.285156 34.144531 32.203125 33.835938 C 32.136719 33.601562 32.28125 33.355469 32.519531 33.304688 C 33.742188 33.039062 35.304688 33.015625 36.671875 33.238281 C 36.902344 33.273438 37.066406 33.480469 37.03125 33.710938 C 37.027344 33.738281 37.019531 33.765625 37.003906 33.792969 C 36.460938 34.84375 36.359375 35.953125 36.425781 37.125 C 36.523438 38.867188 36.523438 40.617188 36.566406 42.34375 C 36.777344 42.480469 36.910156 42.632812 37.070312 42.664062 C 41.183594 43.503906 44.890625 45.347656 48.554688 47.308594 C 50.945312 48.585938 53.414062 49.664062 55.996094 50.488281 C 61.628906 52.289062 67.367188 52.789062 73.246094 52.230469 C 78.050781 51.773438 82.703125 50.597656 87.382812 49.535156 C 89.199219 49.121094 91.011719 48.710938 92.882812 48.660156 C 93.058594 48.65625 93.230469 48.582031 93.488281 48.519531 C 93.554688 48.199219 93.667969 47.863281 93.679688 47.519531 C 93.710938 46.792969 93.667969 46.066406 93.6875 45.34375 C 93.707031 44.589844 94.167969 44.078125 94.855469 43.992188 C 95.546875 43.910156 96.335938 44.476562 96.4375 45.171875 C 96.496094 45.589844 96.484375 46.015625 96.503906 46.4375 C 96.539062 47.097656 96.574219 47.753906 96.613281 48.511719 C 97.164062 48.660156 97.664062 48.828125 98.179688 48.925781 C 99.777344 49.230469 101.347656 49.628906 102.835938 50.28125 C 105.726562 51.558594 108.097656 53.429688 109.394531 56.425781 C 109.648438 57.023438 110.027344 57.429688 110.582031 57.710938 C 111.117188 57.976562 111.652344 58.246094 112.195312 58.496094 C 112.285156 58.535156 112.421875 58.46875 112.617188 58.441406 C 112.824219 57.710938 112.71875 56.929688 112.75 56.164062 C 112.824219 54.292969 112.855469 52.417969 113.007812 50.554688 C 113.066406 49.789062 113.347656 49.027344 113.605469 48.292969 C 113.8125 47.71875 114.226562 47.277344 114.792969 46.988281 C 116.1875 46.273438 117.460938 46.734375 117.976562 48.21875 C 118.152344 48.71875 118.210938 49.28125 118.214844 49.8125 C 118.222656 51.507812 118.164062 53.199219 118.15625 54.890625 C 118.152344 55.847656 118.039062 56.816406 118.339844 57.796875 C 119.425781 58.101562 120.507812 57.9375 121.574219 57.980469 C 123.097656 58.039062 123.191406 58.109375 123.207031 59.640625 C 123.230469 61.332031 123.242188 63.027344 123.28125 64.71875 C 123.296875 65.375 123.3125 66.042969 123.59375 66.738281 C 123.949219 66.785156 124.292969 66.839844 124.636719 66.871094 C 125.773438 66.964844 126.917969 66.992188 128.042969 67.160156 C 128.742188 67.265625 129.433594 67.53125 130.089844 67.8125 C 130.738281 68.085938 131.082031 68.667969 131.230469 69.351562 C 131.40625 70.183594 130.992188 70.9375 130.195312 71.230469 C 130.027344 71.292969 129.84375 71.324219 129.667969 71.34375 C 127.628906 71.554688 125.59375 71.640625 123.582031 71.140625 C 123.175781 71.039062 122.777344 70.894531 122.386719 70.746094 C 121.457031 70.394531 121.015625 69.777344 120.917969 68.710938 C 120.726562 66.667969 120.460938 64.632812 120.480469 62.570312 C 120.484375 62.15625 120.398438 61.742188 120.351562 61.289062 C 119.742188 60.945312 119.171875 61.070312 118.628906 61.214844 C 118.191406 61.636719 118.304688 62.144531 118.304688 62.613281 C 118.324219 64.847656 118.371094 67.085938 118.394531 69.324219 C 118.402344 69.988281 118.425781 70.65625 118.347656 71.316406 C 118.152344 73.046875 116.710938 73.890625 115.082031 73.253906 C 113.976562 72.824219 113.339844 71.957031 113.136719 70.828125 C 112.929688 69.703125 112.863281 68.550781 112.753906 67.410156 C 112.675781 66.636719 112.8125 65.84375 112.519531 65.03125 C 111.753906 65.042969 111.136719 65.378906 110.457031 65.792969 C 110.371094 66.214844 110.230469 66.675781 110.1875 67.148438 C 109.925781 70.035156 109.632812 72.921875 109.445312 75.816406 C 109.191406 79.804688 109.261719 83.792969 109.714844 87.769531 C 110.046875 90.710938 110.371094 93.652344 110.761719 96.585938 C 110.890625 97.535156 111.195312 98.464844 111.46875 99.390625 C 111.601562 99.839844 111.851562 100.257812 112.070312 100.734375 C 112.671875 100.753906 113.203125 100.789062 113.738281 100.789062 C 115.839844 100.78125 117.941406 100.804688 120.042969 100.738281 C 121.652344 100.691406 122.792969 101.421875 123.671875 102.691406 C 124.339844 103.652344 124.679688 104.746094 124.875 105.886719 C 125.351562 108.6875 124.828125 111.304688 123.351562 113.710938 C 122.371094 115.320312 120.964844 116.09375 119.007812 116.089844 C 108.679688 116.066406 98.351562 116.121094 88.019531 116.148438 C 82.316406 116.164062 76.613281 116.179688 70.90625 116.191406 C 61.417969 116.21875 51.929688 116.242188 42.445312 116.269531 C 36.917969 116.285156 31.394531 116.257812 25.871094 116.339844 C 23.769531 116.367188 22.320312 115.445312 21.226562 113.769531 C 20.933594 113.320312 20.667969 112.828125 20.496094 112.320312 C 19.308594 108.75 19.546875 105.308594 21.425781 102.007812 C 22.027344 100.953125 22.832031 100.519531 24.066406 100.53125 C 33.136719 100.597656 42.203125 100.609375 51.269531 100.636719 C 61.238281 100.664062 71.207031 100.695312 81.175781 100.722656 C 81.46875 100.722656 81.761719 100.679688 82.027344 100.65625 " fill-opacity="1" fill-rule="nonzero"/></g><path fill="#000000" d="M 55.875 59.25 C 55.421875 59.089844 55.046875 59.253906 54.683594 59.515625 C 54.300781 59.792969 53.917969 60.085938 53.511719 60.324219 C 52.742188 60.773438 51.898438 60.871094 51.03125 60.726562 C 50.320312 60.609375 49.910156 60.21875 49.851562 59.671875 C 49.78125 59.019531 50.082031 58.507812 50.734375 58.191406 C 51.40625 57.859375 52.109375 57.835938 52.816406 58.027344 C 53.269531 58.15625 53.71875 58.324219 54.148438 58.523438 C 54.902344 58.875 55.601562 58.71875 56.445312 58.375 C 56.136719 58.0625 55.921875 57.84375 55.703125 57.625 C 55.246094 57.164062 54.996094 56.609375 54.992188 55.957031 C 54.988281 55.457031 55.097656 54.980469 55.585938 54.75 C 56.039062 54.539062 56.511719 54.585938 56.941406 54.867188 C 57.351562 55.136719 57.671875 55.488281 57.792969 55.972656 C 57.886719 56.34375 57.949219 56.71875 58 57.097656 C 58.046875 57.472656 58.0625 57.851562 58.09375 58.265625 C 58.882812 58.695312 59.730469 58.648438 60.679688 58.835938 C 60.445312 58.316406 60.230469 57.953125 60.117188 57.5625 C 59.984375 57.113281 59.886719 56.636719 59.875 56.171875 C 59.859375 55.773438 60.09375 55.449219 60.46875 55.261719 C 60.878906 55.058594 61.21875 55.257812 61.515625 55.492188 C 62.078125 55.929688 62.28125 56.566406 62.339844 57.253906 C 62.402344 57.964844 62.433594 58.675781 62.484375 59.4375 C 63.40625 59.972656 64.410156 60.167969 65.601562 60.535156 C 65.324219 59.902344 65.132812 59.496094 64.960938 59.082031 C 64.707031 58.472656 64.738281 57.867188 65.019531 57.277344 C 65.332031 56.621094 66.054688 56.507812 66.523438 57.070312 C 66.730469 57.3125 66.90625 57.632812 66.960938 57.941406 C 67.054688 58.453125 67.058594 58.984375 67.058594 59.503906 C 67.0625 59.929688 66.980469 60.359375 67.207031 60.785156 C 67.742188 61.046875 68.3125 60.980469 68.851562 61.019531 C 69.246094 60.65625 69 60.273438 68.90625 59.9375 C 68.726562 59.269531 68.675781 58.617188 68.910156 57.964844 C 69.007812 57.703125 69.140625 57.441406 69.3125 57.222656 C 69.605469 56.84375 70.027344 56.78125 70.472656 56.886719 C 70.882812 56.988281 71.226562 57.355469 71.210938 57.828125 C 71.191406 58.339844 71.089844 58.863281 70.9375 59.355469 C 70.777344 59.890625 70.511719 60.394531 70.292969 60.914062 C 71.277344 61.242188 71.453125 61.242188 72.875 60.949219 C 72.871094 60.695312 72.878906 60.425781 72.851562 60.164062 C 72.789062 59.453125 72.65625 58.742188 72.652344 58.035156 C 72.648438 57.371094 73.121094 56.902344 73.675781 56.863281 C 74.273438 56.820312 74.835938 57.335938 74.875 58.03125 C 74.894531 58.402344 74.832031 58.792969 74.726562 59.152344 C 74.585938 59.652344 74.375 60.128906 74.191406 60.621094 C 75.132812 60.832031 75.761719 60.710938 77.0625 60.042969 C 76.976562 59.664062 76.882812 59.257812 76.792969 58.851562 C 76.640625 58.1875 76.609375 57.527344 76.839844 56.875 C 77.03125 56.335938 77.417969 56.082031 77.917969 56.152344 C 78.335938 56.210938 78.671875 56.535156 78.742188 57.015625 C 78.78125 57.292969 78.757812 57.585938 78.722656 57.867188 C 78.660156 58.375 78.566406 58.878906 78.460938 59.523438 C 79.503906 59.179688 80.304688 58.730469 81.105469 58.140625 C 80.890625 57.671875 80.726562 57.230469 80.496094 56.824219 C 80.085938 56.105469 80.765625 54.804688 81.742188 54.628906 C 82.449219 54.496094 83.054688 55.035156 82.988281 55.796875 C 82.949219 56.21875 82.808594 56.628906 82.710938 57.042969 C 83.589844 57 84.265625 56.652344 84.886719 55.992188 C 85.339844 55.507812 85.804688 55.03125 86.316406 54.613281 C 86.726562 54.28125 87.234375 54.128906 87.78125 54.15625 C 88.28125 54.183594 88.703125 54.371094 89.039062 54.734375 C 89.558594 55.292969 89.464844 56.21875 88.816406 56.597656 C 88.496094 56.785156 88.113281 56.914062 87.75 56.949219 C 87.234375 56.992188 86.6875 57.015625 86.195312 56.890625 C 85.34375 56.671875 84.605469 56.839844 83.882812 57.273438 C 83.601562 57.441406 83.304688 57.589844 82.9375 57.785156 C 83.242188 58.132812 83.617188 58.152344 83.945312 58.265625 C 84.410156 58.425781 84.78125 58.703125 85.015625 59.148438 C 85.34375 59.765625 84.988281 60.453125 84.308594 60.539062 C 83.746094 60.613281 83.285156 60.402344 82.875 60.046875 C 82.378906 59.609375 81.894531 59.164062 81.355469 58.679688 C 80.675781 59.035156 80.050781 59.355469 79.429688 59.691406 C 79.277344 59.773438 79.144531 59.890625 78.917969 60.050781 C 79.328125 60.363281 79.664062 60.601562 79.976562 60.871094 C 80.316406 61.160156 80.503906 61.542969 80.5 62 C 80.5 62.523438 80.15625 62.898438 79.632812 62.953125 C 78.945312 63.027344 78.425781 62.738281 78.085938 62.15625 C 77.828125 61.710938 77.625 61.230469 77.375 60.730469 C 76.589844 60.789062 75.886719 60.964844 75.175781 61.316406 C 75.445312 61.738281 75.6875 62.082031 75.886719 62.445312 C 76.058594 62.757812 76.058594 63.109375 75.84375 63.394531 C 75.589844 63.734375 75.214844 63.789062 74.816406 63.703125 C 74.269531 63.589844 73.878906 63.261719 73.597656 62.796875 C 73.375 62.429688 73.15625 62.0625 72.914062 61.65625 C 72.210938 61.671875 71.511719 61.691406 70.851562 61.707031 C 70.601562 62.046875 70.863281 62.277344 70.90625 62.539062 C 70.980469 63 71.101562 63.488281 71.03125 63.9375 C 70.886719 64.871094 69.890625 65.164062 69.191406 64.535156 C 68.691406 64.085938 68.480469 63.53125 68.574219 62.867188 C 68.625 62.496094 68.71875 62.128906 68.804688 61.71875 C 68.269531 61.355469 67.707031 61.46875 67.132812 61.40625 C 66.808594 61.914062 66.507812 62.394531 66.199219 62.867188 C 65.640625 63.726562 64.839844 64.175781 63.835938 64.277344 C 63.695312 64.292969 63.554688 64.300781 63.414062 64.296875 C 62.65625 64.25 62.320312 63.667969 62.667969 63 C 62.941406 62.472656 63.382812 62.109375 63.875 61.8125 C 64.265625 61.578125 64.675781 61.363281 65.230469 61.054688 C 64.285156 60.609375 63.457031 60.351562 62.519531 60.128906 C 62.304688 60.515625 62.089844 60.875 61.902344 61.25 C 61.378906 62.285156 60.519531 62.921875 59.488281 63.367188 C 59.269531 63.457031 59.035156 63.511719 58.800781 63.554688 C 58.457031 63.613281 58.140625 63.554688 57.910156 63.253906 C 57.6875 62.953125 57.691406 62.636719 57.847656 62.308594 C 58.238281 61.503906 58.886719 60.957031 59.660156 60.550781 C 60.117188 60.308594 60.589844 60.097656 61.1875 59.808594 C 60.929688 59.632812 60.777344 59.460938 60.59375 59.414062 C 59.867188 59.230469 59.148438 58.949219 58.289062 59.058594 C 58.0625 59.417969 57.820312 59.820312 57.554688 60.207031 C 57.261719 60.640625 56.972656 61.078125 56.640625 61.484375 C 56.257812 61.957031 55.726562 62.132812 55.125 62.144531 C 54.308594 62.15625 53.878906 61.527344 54.285156 60.816406 C 54.488281 60.457031 54.835938 60.171875 55.132812 59.871094 C 55.359375 59.640625 55.609375 59.4375 55.847656 59.222656 C 55.882812 59.167969 55.914062 59.117188 55.949219 59.066406 C 55.925781 59.128906 55.898438 59.1875 55.875 59.25 " fill-opacity="1" fill-rule="nonzero"/><path fill="#000000" d="M 35.691406 70.734375 C 35.519531 70.160156 35.375 69.671875 35.1875 69.039062 C 34.738281 69.453125 34.410156 69.769531 34.066406 70.074219 C 33.46875 70.597656 32.835938 71.070312 32.046875 71.269531 C 31.105469 71.507812 30.472656 70.949219 30.605469 69.992188 C 30.695312 69.335938 30.988281 68.757812 31.546875 68.402344 C 32.027344 68.097656 32.558594 67.855469 33.09375 67.652344 C 33.621094 67.453125 34.183594 67.335938 34.796875 67.167969 C 34.699219 66.582031 34.617188 66.070312 34.519531 65.460938 C 34.050781 65.355469 33.59375 65.277344 33.152344 65.152344 C 32.398438 64.933594 31.632812 64.738281 30.910156 64.4375 C 30.371094 64.214844 29.953125 63.789062 29.761719 63.195312 C 29.550781 62.546875 29.921875 61.957031 30.585938 62.003906 C 31.039062 62.035156 31.535156 62.15625 31.914062 62.394531 C 32.441406 62.726562 32.878906 63.203125 33.355469 63.617188 C 33.617188 63.847656 33.882812 64.074219 34.28125 64.414062 C 34.511719 63.578125 34.324219 62.933594 34.214844 62.191406 C 33.558594 61.820312 32.875 61.433594 32.191406 61.050781 C 31.1875 60.484375 30.441406 59.691406 30.113281 58.5625 C 30.011719 58.21875 29.964844 57.835938 29.984375 57.476562 C 30.015625 56.910156 30.613281 56.5 31.125 56.730469 C 31.589844 56.941406 32.0625 57.234375 32.398438 57.613281 C 32.882812 58.160156 33.246094 58.816406 33.664062 59.425781 C 33.804688 59.625 33.953125 59.820312 34.253906 60.222656 C 34.375 59.363281 34.457031 58.757812 34.554688 58.074219 C 34.210938 57.761719 33.839844 57.472656 33.53125 57.125 C 32.90625 56.414062 32.246094 55.71875 31.730469 54.933594 C 31.429688 54.472656 31.296875 53.855469 31.246094 53.292969 C 31.207031 52.832031 31.414062 52.347656 31.921875 52.132812 C 32.394531 51.929688 32.972656 52.035156 33.339844 52.515625 C 33.6875 52.96875 33.980469 53.484375 34.203125 54.011719 C 34.441406 54.585938 34.574219 55.207031 34.796875 55.957031 C 34.980469 55.707031 35.15625 55.574219 35.199219 55.402344 C 35.449219 54.386719 35.855469 53.429688 35.992188 52.355469 C 36.207031 50.65625 37.277344 49.496094 38.921875 48.945312 C 39.539062 48.738281 40.164062 48.742188 40.769531 49.015625 C 41.421875 49.3125 41.703125 49.902344 41.441406 50.582031 C 41.3125 50.914062 41.113281 51.265625 40.847656 51.488281 C 40.367188 51.890625 39.835938 52.253906 39.28125 52.535156 C 38.722656 52.824219 38.121094 53.066406 37.511719 53.199219 C 36.226562 53.476562 35.925781 54.386719 35.808594 55.480469 C 36.246094 55.71875 36.453125 55.386719 36.710938 55.261719 C 37.667969 54.785156 38.65625 54.46875 39.742188 54.515625 C 40.203125 54.535156 40.558594 54.707031 40.753906 55.136719 C 40.929688 55.515625 40.824219 55.910156 40.574219 56.175781 C 40.257812 56.511719 39.878906 56.847656 39.460938 57.003906 C 38.878906 57.21875 38.238281 57.292969 37.617188 57.375 C 36.835938 57.476562 36.042969 57.484375 35.273438 57.847656 C 34.898438 58.566406 34.890625 59.328125 35.027344 60.242188 C 35.464844 59.996094 35.8125 59.78125 36.179688 59.605469 C 36.796875 59.316406 37.410156 59 38.058594 58.804688 C 38.4375 58.691406 38.898438 58.726562 39.292969 58.816406 C 39.851562 58.941406 40.066406 59.539062 39.847656 60.082031 C 39.542969 60.839844 38.953125 61.285156 38.210938 61.445312 C 37.5 61.597656 36.753906 61.601562 36.023438 61.671875 C 35.671875 61.707031 35.320312 61.738281 34.914062 61.777344 C 34.777344 62.523438 34.75 63.167969 35.0625 63.878906 C 35.722656 63.75 36.136719 63.316406 36.632812 63.054688 C 37.246094 62.734375 37.855469 62.421875 38.570312 62.484375 C 38.824219 62.507812 39.085938 62.574219 39.316406 62.683594 C 39.667969 62.847656 39.765625 63.28125 39.597656 63.636719 C 39.386719 64.09375 39.035156 64.433594 38.585938 64.59375 C 38 64.800781 37.375 64.914062 36.761719 65.042969 C 36.257812 65.148438 35.707031 65.011719 35.207031 65.371094 C 35.214844 65.65625 35.21875 65.957031 35.226562 66.277344 C 35.902344 66.644531 36.601562 66.519531 37.261719 66.621094 C 37.777344 66.703125 38.328125 66.738281 38.785156 66.960938 C 39.238281 67.179688 39.640625 67.5625 39.972656 67.949219 C 40.292969 68.324219 40.355469 68.8125 40.09375 69.285156 C 39.851562 69.71875 39.445312 69.789062 39.015625 69.804688 C 38.300781 69.835938 37.675781 69.570312 37.089844 69.191406 C 36.703125 68.9375 36.328125 68.664062 35.839844 68.320312 C 35.71875 69.152344 35.917969 69.765625 36.285156 70.398438 C 36.703125 70.390625 37.113281 70.363281 37.523438 70.371094 C 38.152344 70.382812 38.785156 70.371094 39.40625 70.449219 C 39.9375 70.519531 40.402344 70.789062 40.730469 71.238281 C 41 71.601562 41.078125 72.007812 40.890625 72.433594 C 40.714844 72.824219 40.34375 72.890625 39.96875 72.933594 C 39.320312 73.011719 38.71875 72.820312 38.128906 72.582031 C 37.761719 72.433594 37.441406 72.140625 36.652344 72.007812 C 37.160156 72.429688 37.378906 72.605469 37.589844 72.789062 C 38.152344 73.265625 38.761719 73.699219 39.246094 74.242188 C 39.585938 74.621094 39.816406 75.136719 39.972656 75.625 C 40.144531 76.171875 39.792969 76.769531 39.253906 77.082031 C 38.761719 77.363281 38.285156 77.304688 37.816406 76.859375 C 37.09375 76.175781 36.753906 75.300781 36.617188 74.332031 C 36.53125 73.710938 36.425781 73.09375 36.335938 72.515625 C 35.851562 72.410156 35.820312 72.730469 35.695312 72.929688 C 35.414062 73.371094 35.171875 73.84375 34.859375 74.265625 C 34.644531 74.558594 34.359375 74.808594 34.070312 75.035156 C 33.667969 75.34375 33.207031 75.421875 32.738281 75.179688 C 32.3125 74.960938 32.09375 74.382812 32.230469 73.789062 C 32.433594 72.917969 32.96875 72.265625 33.710938 71.808594 C 34.289062 71.453125 34.90625 71.15625 35.691406 70.734375 " fill-opacity="1" fill-rule="nonzero"/><path fill="#000000" d="M 94.980469 94.585938 C 94.804688 94.023438 94.640625 93.492188 94.476562 92.957031 C 94.226562 92.140625 94.269531 91.332031 94.558594 90.535156 C 94.703125 90.132812 94.945312 89.808594 95.429688 89.792969 C 95.898438 89.777344 96.210938 90.054688 96.390625 90.4375 C 96.539062 90.753906 96.625 91.113281 96.671875 91.460938 C 96.726562 91.863281 96.703125 92.269531 96.710938 92.691406 C 97.519531 92.347656 97.519531 92.347656 98.457031 90.976562 C 98.191406 90.59375 97.890625 90.195312 97.625 89.773438 C 97.101562 88.957031 96.949219 88.0625 97.152344 87.113281 C 97.195312 86.917969 97.265625 86.71875 97.359375 86.542969 C 97.691406 85.933594 98.488281 85.835938 98.878906 86.40625 C 99.167969 86.816406 99.355469 87.304688 99.519531 87.78125 C 99.632812 88.109375 99.632812 88.476562 99.6875 88.855469 C 100.488281 88.203125 100.578125 88.066406 101.308594 86.429688 C 100.902344 85.875 100.464844 85.3125 100.0625 84.726562 C 99.738281 84.257812 99.5 83.742188 99.523438 83.148438 C 99.535156 82.894531 99.542969 82.628906 99.625 82.390625 C 99.785156 81.929688 100.101562 81.601562 100.617188 81.542969 C 101.042969 81.492188 101.476562 81.769531 101.675781 82.273438 C 101.808594 82.601562 101.867188 82.960938 101.9375 83.3125 C 101.976562 83.511719 101.953125 83.722656 101.976562 83.925781 C 101.996094 84.074219 102.050781 84.214844 102.113281 84.4375 C 102.75 83.96875 102.890625 83.335938 102.886719 82.664062 C 102.878906 81.773438 103.058594 80.925781 103.429688 80.125 C 103.578125 79.804688 103.785156 79.5 104.011719 79.230469 C 104.28125 78.902344 104.667969 78.753906 105.09375 78.738281 C 105.652344 78.714844 106.082031 79.070312 106.171875 79.621094 C 106.289062 80.335938 106.0625 80.960938 105.601562 81.472656 C 105.191406 81.925781 104.753906 82.382812 104.242188 82.707031 C 103.394531 83.242188 102.996094 84.015625 102.746094 84.996094 C 103.175781 85.25 103.539062 84.976562 103.886719 84.878906 C 104.449219 84.730469 104.988281 84.679688 105.535156 84.914062 C 106.332031 85.257812 106.464844 86.074219 105.8125 86.628906 C 105.402344 86.976562 104.917969 87.160156 104.398438 87.117188 C 103.59375 87.050781 102.792969 86.90625 101.890625 86.785156 C 101.222656 87.691406 100.65625 88.738281 100.039062 89.902344 C 100.707031 89.886719 101.160156 89.859375 101.613281 89.871094 C 102.128906 89.882812 102.621094 89.996094 103.042969 90.332031 C 103.652344 90.8125 103.703125 91.519531 103.140625 92.054688 C 102.707031 92.464844 102.171875 92.671875 101.59375 92.539062 C 101.105469 92.429688 100.625 92.226562 100.175781 91.996094 C 99.820312 91.816406 99.515625 91.53125 99.125 91.25 C 98.226562 92.089844 97.503906 93.042969 96.664062 94.0625 C 97.125 94.1875 97.46875 94.265625 97.800781 94.375 C 98.136719 94.484375 98.488281 94.585938 98.789062 94.765625 C 99.207031 95.011719 99.46875 95.402344 99.390625 95.917969 C 99.324219 96.386719 98.851562 96.761719 98.300781 96.851562 C 97.59375 96.96875 96.976562 96.761719 96.472656 96.273438 C 96.105469 95.921875 95.789062 95.523438 95.398438 95.085938 C 94.5 95.578125 93.601562 96.015625 92.832031 96.703125 C 92.375 97.105469 91.863281 97.464844 91.324219 97.746094 C 90.570312 98.136719 89.753906 98.203125 88.964844 97.808594 C 88.183594 97.417969 88.085938 96.648438 88.710938 96.050781 C 89.054688 95.722656 89.457031 95.484375 89.929688 95.476562 C 90.589844 95.464844 91.285156 95.394531 91.90625 95.566406 C 93.171875 95.921875 94.0625 95.363281 94.980469 94.585938 " fill-opacity="1" fill-rule="nonzero"/><path fill="#000000" d="M 98.160156 75.109375 C 98.355469 73.375 98.25 67.511719 97.996094 65.457031 C 97.980469 65.335938 97.882812 65.246094 97.761719 65.242188 C 97.386719 65.226562 96.992188 65.214844 96.539062 65.199219 C 96.398438 65.195312 96.28125 65.3125 96.289062 65.457031 C 96.4375 68.710938 96.460938 71.910156 96.855469 75.195312 C 96.871094 75.324219 96.988281 75.421875 97.121094 75.40625 C 97.433594 75.378906 97.699219 75.351562 97.941406 75.328125 C 98.058594 75.316406 98.148438 75.226562 98.160156 75.109375 Z M 98.136719 61.210938 C 98.253906 61.066406 98.167969 60.839844 97.984375 60.8125 C 97.746094 60.777344 97.59375 60.75 97.441406 60.761719 C 95.523438 60.910156 94.042969 61.855469 92.886719 63.355469 C 90.214844 66.824219 90.691406 72.28125 93.910156 75.25 C 96.699219 77.820312 100.757812 77.523438 103.152344 74.570312 C 105.96875 71.105469 105.59375 65.578125 102.324219 62.53125 C 102.078125 62.300781 101.777344 62.132812 101.507812 61.960938 C 101.421875 61.910156 101.308594 61.914062 101.230469 61.976562 C 99.765625 63.105469 99.472656 63.367188 99.117188 64.066406 C 99.035156 64.230469 99.148438 64.421875 99.328125 64.425781 C 99.832031 64.433594 100.332031 64.445312 100.867188 64.457031 C 101.164062 64.460938 101.195312 64.894531 100.902344 64.941406 C 100.222656 65.054688 99.550781 64.964844 98.945312 65.273438 C 98.882812 65.308594 98.835938 65.371094 98.820312 65.445312 C 98.636719 66.4375 98.679688 67.453125 98.886719 68.507812 C 98.90625 68.605469 98.988281 68.683594 99.085938 68.699219 C 99.882812 68.828125 100.597656 68.636719 101.3125 68.613281 C 101.472656 68.609375 101.664062 68.597656 101.734375 68.78125 C 101.792969 68.925781 101.691406 69.085938 101.539062 69.105469 C 100.765625 69.207031 99.972656 69.308594 99.171875 69.410156 C 99.066406 69.425781 98.984375 69.503906 98.960938 69.605469 C 98.746094 70.652344 98.789062 71.597656 99 72.585938 C 99.023438 72.699219 99.117188 72.777344 99.230469 72.78125 C 99.71875 72.792969 100.183594 72.804688 100.675781 72.8125 C 100.964844 72.820312 101.007812 73.234375 100.726562 73.296875 C 100.148438 73.429688 99.554688 73.347656 99.101562 73.648438 C 99.039062 73.691406 98.996094 73.761719 98.992188 73.835938 C 98.941406 74.480469 98.890625 75.089844 98.84375 75.722656 C 98.832031 75.835938 98.746094 75.929688 98.636719 75.945312 C 97.824219 76.0625 97.101562 76.234375 96.460938 75.847656 C 96.414062 75.816406 96.375 75.777344 96.355469 75.726562 C 96.039062 74.976562 96.410156 74.132812 95.851562 73.566406 C 95.828125 73.542969 95.796875 73.523438 95.765625 73.511719 C 95.214844 73.324219 94.628906 73.523438 94.078125 73.429688 C 93.8125 73.382812 93.8125 73.003906 94.074219 72.949219 C 94.683594 72.816406 95.367188 73.015625 95.894531 72.550781 C 95.9375 72.511719 95.964844 72.457031 95.972656 72.398438 C 96.085938 71.535156 96.058594 70.660156 95.75 69.804688 C 95.726562 69.734375 95.667969 69.679688 95.59375 69.65625 C 94.933594 69.457031 94.226562 69.703125 93.460938 69.585938 C 93.1875 69.542969 93.179688 69.152344 93.453125 69.101562 C 94.214844 68.957031 94.933594 69.082031 95.574219 68.777344 C 95.644531 68.742188 95.695312 68.671875 95.707031 68.589844 C 95.839844 67.535156 95.789062 66.511719 95.542969 65.433594 C 95.519531 65.324219 95.425781 65.242188 95.316406 65.238281 C 94.695312 65.21875 94.101562 65.210938 93.515625 65.160156 C 93.511719 65.160156 93.511719 65.160156 93.507812 65.160156 C 93.21875 65.128906 93.226562 64.699219 93.519531 64.671875 C 94.140625 64.617188 94.660156 64.574219 95.171875 64.527344 C 95.257812 64.519531 95.332031 64.46875 95.367188 64.390625 C 95.96875 63.121094 97.167969 62.402344 98.136719 61.210938 Z M 101.902344 61.324219 C 101.894531 61.410156 101.929688 61.492188 101.996094 61.542969 C 102.304688 61.777344 102.664062 62.019531 102.960938 62.324219 C 105.988281 65.425781 106.519531 70.539062 104.164062 74.171875 C 102.726562 76.390625 100.71875 77.636719 98.019531 77.582031 C 96.046875 77.542969 94.441406 76.675781 93.101562 75.285156 C 90.117188 72.179688 89.726562 66.789062 92.230469 63.261719 C 93.636719 61.277344 95.519531 60.121094 98 60.167969 C 98.75 60.183594 99.410156 60.101562 99.976562 59.546875 C 100.179688 59.347656 100.496094 59.246094 100.777344 59.148438 C 101.417969 58.933594 101.980469 59.34375 101.996094 60.050781 C 102.007812 60.429688 101.949219 60.8125 101.902344 61.324219 " fill-opacity="1" fill-rule="nonzero"/><path fill="#000000" d="M 53.117188 111.386719 C 52.972656 111.378906 52.96875 111.160156 53.117188 111.15625 C 53.117188 111.15625 53.117188 111.15625 53.121094 111.15625 C 62.15625 111.1875 71.195312 111.234375 80.234375 111.289062 C 80.25 111.289062 80.269531 111.300781 80.289062 111.324219 C 80.398438 111.457031 80.34375 111.660156 80.183594 111.726562 C 80.125 111.746094 80.070312 111.761719 80.015625 111.765625 C 71.0625 111.84375 62.113281 111.761719 53.117188 111.386719 " fill-opacity="1" fill-rule="nonzero"/><path fill="#000000" d="M 26.949219 105.527344 C 26.726562 105.46875 26.742188 105.140625 26.964844 105.09375 C 27.078125 105.070312 27.179688 105.054688 27.28125 105.058594 C 35.257812 105.152344 43.242188 105.253906 51.21875 105.363281 C 51.238281 105.363281 51.253906 105.460938 51.269531 105.511719 C 51.21875 105.601562 51.164062 105.769531 51.113281 105.769531 C 43.070312 105.703125 35.03125 105.625 26.992188 105.535156 C 26.976562 105.535156 26.960938 105.53125 26.949219 105.527344 " fill-opacity="1" fill-rule="nonzero"/><path fill="#000000" d="M 113.238281 107.363281 C 113.476562 107.371094 113.558594 107.695312 113.347656 107.804688 C 113.277344 107.839844 113.195312 107.859375 113.105469 107.875 C 112.929688 107.898438 112.75 107.90625 112.570312 107.90625 C 107.125 107.894531 101.679688 107.886719 96.238281 107.863281 C 95.890625 107.863281 95.542969 107.820312 95.195312 107.78125 C 95.101562 107.773438 95.015625 107.726562 94.960938 107.65625 C 94.878906 107.550781 94.957031 107.398438 95.089844 107.394531 C 96.691406 107.375 107.453125 107.246094 113.238281 107.363281 " fill-opacity="1" fill-rule="nonzero"/></svg>