<svg xmlns="http://www.w3.org/2000/svg" xmlns:xlink="http://www.w3.org/1999/xlink" width="100" zoomAndPan="magnify" viewBox="0 0 75 74.999997" height="100" preserveAspectRatio="xMidYMid meet" version="1.0"><defs><clipPath id="f1653f9bbf"><path d="M 22.804688 10.425781 L 52.054688 10.425781 L 52.054688 64.425781 L 22.804688 64.425781 Z M 22.804688 10.425781 " clip-rule="nonzero"/></clipPath></defs><rect x="-7.5" width="90" fill="#ca975e" y="-7.5" height="89.999996" fill-opacity="1"/><rect x="-7.5" width="90" fill="#ca975e" y="-7.5" height="89.999996" fill-opacity="1"/><rect x="-7.5" width="90" fill="#ca975e" y="-7.5" height="89.999996" fill-opacity="1"/><g clip-path="url(#ca975e)"><path fill="#ffffff" d="M 51.34375 11.144531 C 51.785156 11.589844 52.058594 12.203125 52.058594 12.882812 C 52.058594 13.5625 51.785156 14.175781 51.34375 14.621094 L 28.691406 37.425781 L 51.34375 60.234375 C 51.785156 60.679688 52.058594 61.296875 52.058594 61.972656 C 52.058594 63.332031 50.964844 64.429688 49.617188 64.429688 C 48.945312 64.429688 48.332031 64.15625 47.890625 63.710938 L 23.515625 39.164062 C 23.078125 38.722656 22.800781 38.105469 22.800781 37.425781 C 22.800781 36.746094 23.074219 36.132812 23.515625 35.691406 L 47.890625 11.144531 C 48.332031 10.699219 48.941406 10.421875 49.617188 10.421875 C 50.292969 10.421875 50.902344 10.699219 51.34375 11.144531 Z M 51.34375 11.144531 " fill-opacity="1" fill-rule="nonzero"/></g></svg>