<svg xmlns="http://www.w3.org/2000/svg" xmlns:xlink="http://www.w3.org/1999/xlink" width="100" zoomAndPan="magnify" viewBox="0 0 75 74.999997" height="100" preserveAspectRatio="xMidYMid meet" version="1.0"><defs><clipPath id="ce4ec82cca"><path d="M 22.933594 10.566406 L 52.183594 10.566406 L 52.183594 64.566406 L 22.933594 64.566406 Z M 22.933594 10.566406 " clip-rule="nonzero"/></clipPath></defs><rect x="-7.5" width="90" fill="#ca975e" y="-7.5" height="89.999996" fill-opacity="1"/><rect x="-7.5" width="90" fill="#ca975e" y="-7.5" height="89.999996" fill-opacity="1"/><rect x="-7.5" width="90" fill="#ca975e" y="-7.5" height="89.999996" fill-opacity="1"/><g clip-path="url(#ca975e)"><path fill="#ffffff" d="M 23.644531 63.851562 C 23.207031 63.40625 22.929688 62.792969 22.929688 62.113281 C 22.929688 61.433594 23.203125 60.820312 23.644531 60.375 L 46.300781 37.566406 L 23.644531 14.761719 C 23.207031 14.316406 22.933594 13.699219 22.933594 13.023438 C 22.933594 11.664062 24.023438 10.566406 25.371094 10.566406 C 26.042969 10.566406 26.65625 10.839844 27.097656 11.285156 L 51.472656 35.832031 C 51.914062 36.273438 52.1875 36.886719 52.1875 37.566406 C 52.1875 38.246094 51.914062 38.863281 51.472656 39.304688 L 27.097656 63.851562 C 26.65625 64.296875 26.046875 64.574219 25.371094 64.574219 C 24.695312 64.574219 24.085938 64.296875 23.644531 63.851562 Z M 23.644531 63.851562 " fill-opacity="1" fill-rule="nonzero"/></g></svg>